# xmcd
#
# Track frame offsets:
#	150
#	13648
#	45650
#	66225
#	82872
#	116561
#	133584
#	155962
#	170749
#	185966
#	214573
#	233071
#	261385
#	303225
#	333047
#
# Disc length: 4782
#
# Revision: 1
# Processed by: cddbd v1.5.1PL0 Copyright (c) Steve Scherf et al.
# Submitted via: CDex 1.51
# Normalized: r0:TDELIM( - )
#
DISCID=d212ac0f
DTITLE=Classical Jazz - Jazz Lounge
DYEAR=1900
DGENRE=Jazz
TTITLE0=Chet Baker - I Get Along Without You Very Well
TTITLE1=Horace Silver - Lonely Woman
TTITLE2=Paul Desmond - Squeeze Me
TTITLE3=Modern Jazz Quartet - Autumn In New York
TTITLE4=Sonny Rollins - God Bless The Child
TTITLE5=Oscar Peterson - Georgia On My Mind
TTITLE6=Wes Montgomery - Here's That Rainy Day
TTITLE7=John Coltrane - Nancy (With The Laughing Face)
TTITLE8=Joe Pass - Django's Castle
TTITLE9=Sarah Vaughan and Clifford Brown - April In Paris
TTITLE10=Cannonball Adderly - Dancing In The Dark
TTITLE11=Jimmy Smith - Li'l Darlin'
TTITLE12=Herbie Hancock - Dolphin Dance
TTITLE13=Stacy Kent - East Of The Sun (And West Of The Moon)
TTITLE14=Gerry Mulligan - In The Wee Small Hours Of The Morning
EXTD=
EXTT0=
EXTT1=
EXTT2=
EXTT3=
EXTT4=
EXTT5=
EXTT6=
EXTT7=
EXTT8=
EXTT9=
EXTT10=
EXTT11=
EXTT12=
EXTT13=
EXTT14=
PLAYORDER=
